<?xml version="1.0" ?><svg id="Layer_1" style="enable-background:new 0 0 64 64;" version="1.1" viewBox="0 0 64 64" xml:space="preserve" xmlns="http://www.w3.org/2000/svg" xmlns:xlink="http://www.w3.org/1999/xlink"><style type="text/css">
	.st0{fill:#62BEE7;}
	.st1{fill:#474E5E;}
	.st2{fill:#F3EEE4;}
	.st3{fill:#FFFFFF;}
	.st4{fill:#E8DCCA;}
	.st5{opacity:0.1;fill:#231F20;}
	.st6{fill:#506268;}
	.st7{fill:#EB5151;}
	.st8{fill:#C64444;}
	.st9{fill:#9CCB5B;}
	.st10{fill:#404A4C;}
	.st11{fill:#676767;}
	.st12{fill:#E0E1E5;}
	.st13{fill:#9D9EA0;}
	.st14{fill:#B3B4B7;}
	.st15{opacity:0.1;}
	.st16{fill:#231F20;}
	.st17{fill:#FACC20;}
	.st18{fill:#FDEF34;}
	.st19{fill:#F7A90B;}
	.st20{fill:#20B8EA;}
	.st21{fill:#00A8EA;}
	.st22{fill:#33D3F4;}
	.st23{opacity:0.25;fill:#FFFFFF;}
	.st24{fill:#CACBCE;}
	.st25{fill:#2E3545;}
	.st26{fill:#8DAF4A;}
	.st27{fill:#F9C2AF;}
	.st28{fill:#AFDDF4;}
	.st29{fill:#677177;}
	.st30{fill:#FFEDB3;}
	.st31{fill:#695652;}
	.st32{fill:#30A7BF;}
	.st33{fill:#4D5556;}
	.st34{opacity:0.35;}
	.st35{fill:#FFCB04;}
	.st36{fill:#99E9FA;}
	.st37{opacity:0.2;}
	.st38{opacity:3.000000e-02;}
	.st39{fill:#9ECA5B;}
	.st40{fill:#98BA56;}
	.st41{fill:#40EEFF;}
	.st42{fill:#FF6A52;}
	.st43{opacity:0.1;fill:#FFFFFF;}
	.st44{opacity:0.4;}
	.st45{fill:#57606D;}
	.st46{fill:#BACA5B;}
	.st47{opacity:0.25;}
	.st48{opacity:5.000000e-02;fill:#231F20;}
	.st49{opacity:0.2;fill:#FFFFFF;}
	.st50{opacity:0.3;}
	.st51{fill:#FFD82F;}
	.st52{fill:#F4C121;}
	.st53{fill:#EF9D0A;}
	.st54{fill:#F9E532;}
	.st55{fill:#F4C01E;}
	.st56{fill:#FFE14D;}
	.st57{fill:#B7C156;}
	.st58{fill:#DBA92C;}
	.st59{fill:#363D4D;}
	.st60{fill:#3F4656;}
	.st61{fill:#463E33;}
	.st62{fill:none;}
	.st63{opacity:4.000000e-02;}
	.st64{fill:#4DB6AC;}
	.st65{fill:#CADE49;}
	.st66{fill:#9FD343;}
	.st67{fill:#AAD643;}
	.st68{fill:#82C736;}
	.st69{opacity:0.3;fill:#FFFFFF;}
	.st70{fill:#FFD640;}
	.st71{opacity:0.5;}
	.st72{opacity:0.6;}
</style><g><circle class="st1" cx="32" cy="32" r="32"/><g><path class="st29" d="M33.5,8.8c-0.3,0-0.5,0.2-0.5,0.5v7.6c0,0.3,0.2,0.5,0.5,0.5s0.5-0.2,0.5-0.5V9.2C34,9,33.8,8.8,33.5,8.8z"/><path class="st29" d="M42.3,8c-0.3,0-0.5,0.2-0.5,0.5v6.4c0,0.3,0.2,0.5,0.5,0.5s0.5-0.2,0.5-0.5V8.5C42.7,8.2,42.5,8,42.3,8z"/><path class="st29" d="M37.9,9.5c-0.3,0-0.5,0.2-0.5,0.5v3.7c0,0.3,0.2,0.5,0.5,0.5s0.5-0.2,0.5-0.5V10C38.4,9.7,38.1,9.5,37.9,9.5    z"/><path class="st29" d="M46.6,10.1c-0.3,0-0.5,0.2-0.5,0.5v5c0,0.3,0.2,0.5,0.5,0.5s0.5-0.2,0.5-0.5v-5    C47.1,10.3,46.9,10.1,46.6,10.1z"/><path class="st42" d="M46.7,25c-1.5,2.1-3.9,3.5-6.7,3.5c-2.7,0-5-1.3-6.5-3.3c-2.4,1-4.6,2.3-6.4,4l0,0L24.1,32    c0,0-3.1-3.3-5.6-3.3c0,0,0.7,7.3-9.1,8.7v3.1c0,0,6,9.4,13,8c0.8,2.5,0.8,5,0.1,7.5h5l1.8-4.9H43c0.1,1.6,0,3.3-0.4,4.9h5.1    c1.7-2.4,2.4-5.6,2.6-8.7c2.6-2.5,4.2-6,4.2-9.8C54.6,31.9,51.4,27.2,46.7,25z"/><g><circle class="st3" cx="16.5" cy="38.2" r="1.2"/><circle class="st1" cx="16.1" cy="38.5" r="0.6"/></g><path class="st7" d="M40.1,29.7c-1.9,0-3.7,0.3-5.5,0.8c-1.8,0.5-3.5,1.3-5,2.4c1.8-0.5,3.5-0.9,5.2-1.2c1.7-0.3,3.5-0.4,5.3-0.4    c1.8,0,3.5,0.1,5.3,0.4c1.7,0.3,3.5,0.7,5.2,1.2c-1.5-1.1-3.2-1.9-5-2.4C43.8,30,41.9,29.7,40.1,29.7z"/><g><circle class="st17" cx="40.1" cy="20.5" r="8.6"/></g><g><circle class="st18" cx="40.1" cy="20.5" r="6.3"/></g><g><g><g><g><path class="st7" d="M42.9,21.3c-0.1-0.3-0.5-1.2-2.4-1.6v-2.4c0.5,0.2,0.8,0.5,0.9,0.9c0.1,0.4,0.4,0.6,0.7,0.6        c0.2,0,1.4-0.3,0.2-1.9c-0.2-0.3-0.6-0.7-1.8-0.8v-0.9h-0.7v0.9c-2.2,0.2-2.4,1.7-2.4,2.3c0,1.9,1.9,2.3,2.4,2.4v2.6        c-0.9-0.2-1.1-1.2-1.2-1.5c-0.2-0.4-0.5-0.5-0.7-0.5c-0.6,0-0.7,0.5-0.7,0.7c0,0.2,0.1,1.4,1.5,2.1c0.3,0.2,0.7,0.3,1.2,0.3        l0,0.9h0.7v-0.9c0.5,0,1-0.2,1.4-0.4C42.9,23.7,43.3,22.4,42.9,21.3z M39.7,19.5c-0.6-0.3-1-0.4-1-1.1c0-0.3,0.1-0.8,1-1.1        V19.5z M40.5,23.7v-2.5c1.2,0.4,1.2,0.9,1.2,1.2C41.7,22.7,41.6,23.4,40.5,23.7z"/></g></g></g></g><g class="st44"><path class="st3" d="M45,13.4l-12,12c-0.4-0.5-0.7-1.1-0.9-1.7l11.3-11.3C43.9,12.7,44.5,13,45,13.4z"/><path class="st3" d="M48.1,17.2L36.8,28.5c-1.2-0.5-2.3-1.3-3.2-2.3L45.8,14C46.8,14.9,47.6,16,48.1,17.2z"/></g><g class="st15"><path class="st16" d="M46.7,25C46.7,25,46.7,25,46.7,25c3.9,2.4,6.6,6.8,6.6,11.8c0,3.9-1.6,7.4-4.2,9.8     c-0.2,3.2-0.9,6.3-2.6,8.7h-3.8c0,0.2-0.1,0.4-0.1,0.6h5.1c1.7-2.4,2.4-5.6,2.6-8.7c2.6-2.5,4.2-6,4.2-9.8     C54.6,31.9,51.4,27.2,46.7,25z"/><path class="st16" d="M41.8,50.5H28.1l-1.8,4.9h-3.6c-0.1,0.2-0.1,0.4-0.2,0.6h5l1.8-4.9h12.5C41.8,50.9,41.8,50.7,41.8,50.5z"/></g></g></g></svg>